<?xml version="1.0" encoding="UTF-8"?>
<svg id="Ebene_1" data-name="Ebene 1" xmlns="http://www.w3.org/2000/svg" viewBox="0 0 484.04 399.39">
  <defs>
    <style>
      .cls-1 {
        fill: #092d41;
      }
    </style>
  </defs>
  <path class="cls-1" d="M291.37,186.71c0-9.49-2.23-18.46-6.26-25.97l-43.35-80.86-43.31,80.86c-4.03,7.51-6.26,16.48-6.26,25.97,0,28.97,21.87,52.92,49.57,52.92h0c27.7,0,49.57-23.95,49.57-52.92M272.35,317.64c44.68-25.26,77.65-39.82,117.54-44.1-61.71-5.92-101.6,12.91-147.85,37.66-46.29-24.75-86.18-43.58-147.85-37.66,39.89,4.32,72.33,18.83,117.01,44.1l9.06,4.84c5.83,3.24,13.85,5.35,21.82,5.35,7.45,0,15.94-2.16,21.3-5.35l9.06-4.84h-.09ZM429.16,385.26H54.36v-76.83c19.45,7.33,39.42,17.33,62.71,30.24,25,13.99,63.84,26.91,93.63,19.91-17.03-3.24-32.44-8.59-49.99-18.31-39.42-22.12-70.15-37.94-106.3-43.77v-12.87c35.91.19,67.21,20.94,108.43,44.24,25.52,13.99,55.87,22.59,79.26,21.51,23.38,1.08,53.74-7.51,79.26-21.51,41.17-23.29,72.48-44.05,107.91-44.24v12.91c-36.05,5.87-66.88,21.65-105.77,43.72-17.55,9.67-32.97,15.07-49.99,18.31,29.79,7,68.63-5.92,93.63-19.91,23.1-12.77,42.88-22.73,62.14-30.05v76.64h-.09ZM429.16,283.36c-58.86-3.29-96.9,15.45-151.5,45.6-6.4,3.76-12.76,7-19.16,9.67-4.79,1.6-10.62,2.68-16.51,2.68-6.4,0-11.72-1.08-16.51-2.68-6.4-2.68-12.76-5.92-19.68-9.67-54.12-30.2-92.59-48.89-151.5-45.6V14.13h374.85v269.22ZM484.04,295.05c-14.7-1.46-27.98-1.46-40.6-.38V0H40.08v294.63c-12.43-1.03-25.52-1.03-40.08.42,13.99,1.5,27.04,4.74,40.08,8.78v95.56h403.36v-95.38c13.19-4.13,26.42-7.42,40.6-8.92"/>
  <path class="cls-1" d="M291.37,186.71c0-9.49-2.23-18.46-6.26-25.97l-43.35-80.86-43.31,80.86c-4.03,7.51-6.26,16.48-6.26,25.97,0,28.97,21.87,52.92,49.57,52.92h0c27.7,0,49.57-23.95,49.57-52.92M272.35,317.64c44.68-25.26,77.65-39.82,117.54-44.1-61.71-5.92-101.6,12.91-147.85,37.66-46.29-24.75-86.18-43.58-147.85-37.66,39.89,4.32,72.33,18.83,117.01,44.1l9.06,4.84c5.83,3.24,13.85,5.35,21.82,5.35,7.45,0,15.94-2.16,21.3-5.35l9.06-4.84h-.09ZM429.16,385.26H54.36v-76.83c19.45,7.33,39.42,17.33,62.71,30.24,25,13.99,63.84,26.91,93.63,19.91-17.03-3.24-32.44-8.59-49.99-18.31-39.42-22.12-70.15-37.94-106.3-43.77v-12.87c35.91.19,67.21,20.94,108.43,44.24,25.52,13.99,55.87,22.59,79.26,21.51,23.38,1.08,53.74-7.51,79.26-21.51,41.17-23.29,72.48-44.05,107.91-44.24v12.91c-36.05,5.87-66.88,21.65-105.77,43.72-17.55,9.67-32.97,15.07-49.99,18.31,29.79,7,68.63-5.92,93.63-19.91,23.1-12.77,42.88-22.73,62.14-30.05v76.64h-.09ZM429.16,283.36c-58.86-3.29-96.9,15.45-151.5,45.6-6.4,3.76-12.76,7-19.16,9.67-4.79,1.6-10.62,2.68-16.51,2.68-6.4,0-11.72-1.08-16.51-2.68-6.4-2.68-12.76-5.92-19.68-9.67-54.12-30.2-92.59-48.89-151.5-45.6V14.13h374.85v269.22ZM484.04,295.05c-14.7-1.46-27.98-1.46-40.6-.38V0H40.08v294.63c-12.43-1.03-25.52-1.03-40.08.42,13.99,1.5,27.04,4.74,40.08,8.78v95.56h403.36v-95.38c13.19-4.13,26.42-7.42,40.6-8.92"/>
</svg>